<svg width="136px" height="128px" viewBox="5 6 17 16" version="1.1" xmlns="http://www.w3.org/2000/svg">
    <defs></defs>
    <path d="M15.260009,17.2417667 C14.3334886,17.8143099 13.2415113,18.1447237 12.0723619,18.1447237 C8.71868901,18.1447237 6,15.4260347 6,12.0723619 C6,8.71868901 8.71868901,6 12.0723619,6 C15.4260347,6 18.1447237,8.71868901 18.1447237,12.0723619 C18.1447237,13.2415113 17.8143099,14.3334886 17.2417667,15.260009 L20.9357867,18.954029 C21.3253394,19.3435817 21.3314846,19.9690262 20.9368606,20.3636502 L20.3636502,20.9368606 C19.9746906,21.3258202 19.3397329,21.3214906 18.954029,20.9357867 L15.260009,17.2417667 Z M14.4778201,14.9321448 C13.827821,15.479447 12.9886004,15.8091999 12.0723619,15.8091999 C10.0085632,15.8091999 8.33552379,14.1361605 8.33552379,12.0723619 C8.33552379,10.0085632 10.0085632,8.33552379 12.0723619,8.33552379 C14.1361605,8.33552379 15.8091999,10.0085632 15.8091999,12.0723619 C15.8091999,12.9886004 15.479447,13.827821 14.9321448,14.4778201 L14.4778201,14.9321448 Z" id="Spotlight" stroke="none" fill="#5E6973" fill-rule="evenodd" opacity="0.867527174"></path>
</svg>